HIERARCHY
ROOT root
{
	OFFSET 0.000000 0.000000 0.000000
	CHANNELS 6 Xposition Yposition Zposition Zrotation Yrotation Xrotation
	JOINT lhip
	{
		OFFSET 0.058581 -0.082280 -0.017664
		CHANNELS 3 Zrotation Yrotation Xrotation
		JOINT lknee
		{
			OFFSET 0.043451 -0.386469 0.008037
			CHANNELS 3 Zrotation Yrotation Xrotation
			JOINT lankle
			{
				OFFSET -0.014790 -0.426874 -0.037428
				CHANNELS 3 Zrotation Yrotation Xrotation
				JOINT ltoe
				{
					OFFSET 0.041054 -0.060286 0.122042
					CHANNELS 3 Zrotation Yrotation Xrotation
					End Site
					{
						OFFSET 0.000000 0.000000 0.000000
					}
				}
			}
		}
	}
	JOINT rhip
	{
		OFFSET -0.060310 -0.090513 -0.013543
		CHANNELS 3 Zrotation Yrotation Xrotation
		JOINT rknee
		{
			OFFSET -0.043257 -0.383688 -0.004843
			CHANNELS 3 Zrotation Yrotation Xrotation
			JOINT rankle
			{
				OFFSET 0.019056 -0.420046 -0.034562
				CHANNELS 3 Zrotation Yrotation Xrotation
				JOINT rtoe
				{
					OFFSET -0.034840 -0.062106 0.130323
					CHANNELS 3 Zrotation Yrotation Xrotation
					End Site
					{
						OFFSET 0.000000 0.000000 0.000000
					}
				}
			}
		}
	}
	JOINT lowerback
	{
		OFFSET 0.004439 0.124404 -0.038385
		CHANNELS 3 Zrotation Yrotation Xrotation
		JOINT upperback
		{
			OFFSET 0.004488 0.137956 0.026820
			CHANNELS 3 Zrotation Yrotation Xrotation
			JOINT chest
			{
				OFFSET -0.002265 0.056032 0.002855
				CHANNELS 3 Zrotation Yrotation Xrotation
				JOINT lowerneck
				{
					OFFSET -0.013390 0.211636 -0.033468
					CHANNELS 3 Zrotation Yrotation Xrotation
					JOINT upperneck
					{
						OFFSET 0.010113 0.088937 0.050410
						CHANNELS 3 Zrotation Yrotation Xrotation
						End Site
						{
							OFFSET 0.000000 0.000000 0.000000
						}
					}
				}
				JOINT lclavicle
				{
					OFFSET 0.071702 0.114000 -0.018898
					CHANNELS 3 Zrotation Yrotation Xrotation
					JOINT lshoulder
					{
						OFFSET 0.122921 0.045205 -0.019046
						CHANNELS 3 Zrotation Yrotation Xrotation
						JOINT lelbow
						{
							OFFSET 0.255332 -0.015649 -0.022946
							CHANNELS 3 Zrotation Yrotation Xrotation
							JOINT lwrist
							{
								OFFSET 0.265709 0.012698 -0.007375
								CHANNELS 3 Zrotation Yrotation Xrotation
								End Site
								{
									OFFSET 0.000000 0.000000 0.000000
								}
							}
						}
					}
				}
				JOINT rclavicle
				{
					OFFSET -0.082954 0.112472 -0.023707
					CHANNELS 3 Zrotation Yrotation Xrotation
					JOINT rshoulder
					{
						OFFSET -0.113228 0.046853 -0.008472
						CHANNELS 3 Zrotation Yrotation Xrotation
						JOINT relbow
						{
							OFFSET -0.260127 -0.014369 -0.031269
							CHANNELS 3 Zrotation Yrotation Xrotation
							JOINT rwrist
							{
								OFFSET -0.269108 0.006794 -0.006027
								CHANNELS 3 Zrotation Yrotation Xrotation
								End Site
								{
									OFFSET 0.000000 0.000000 0.000000
								}
							}
						}
					}
				}
			}
		}
	}
}
MOTION
Frames: 8
Frame Time: 0.033333
0.042188 0.277036 1.006473 73.016201 -0.452941 89.719069 -1.758966 2.413357 1.756938 2.764524 20.063349 5.658615 1.586069 6.976697 -10.226220 0.000000 -0.000000 0.000000 -5.036074 1.776702 -17.241318 -5.049065 -5.442632 23.277483 5.153527 4.948065 -2.728344 0.000000 -0.000000 0.000000 -1.574842 -1.413514 6.828894 8.283468 -7.538420 18.595615 4.039232 -1.549756 -1.054358 -5.418162 -12.195080 20.171743 7.773498 -17.917812 -6.875675 -7.345977 -11.522088 -4.357529 -78.774141 -39.708313 32.350168 172.615227 -49.110183 -133.407343 -43.006170 -13.359671 -13.395098 22.640038 5.777501 5.266216 59.231956 14.990534 9.375338 -56.664480 57.320026 -24.977567 40.536191 -10.744460 6.165651 
0.043558 0.275122 1.006377 73.047529 -0.216925 89.580294 -1.349022 2.327102 1.969545 2.502835 19.089608 5.730416 1.399278 8.183292 -10.327605 0.000000 -0.000000 0.000000 -4.610320 1.527837 -16.948819 -4.675890 -4.622349 23.189426 4.727381 4.135776 -3.047081 0.000000 -0.000000 0.000000 -1.228269 -1.864496 7.127184 7.831340 -7.279026 16.733979 3.709569 -1.636354 -0.424031 -5.477824 -11.675824 18.443736 5.643687 -17.907443 -1.656231 -8.158783 -11.860980 -3.638453 -76.787743 -39.923694 30.716812 172.205537 -50.748299 -132.369177 -40.885384 -14.558340 -14.983709 23.172802 6.016325 5.614538 59.238895 14.923237 9.573938 -56.330126 56.829518 -23.825080 39.779226 -9.135247 5.045800 
0.044704 0.273313 1.006339 72.929967 -0.126274 89.364564 -1.125353 2.363256 2.184015 2.431713 18.536047 5.961550 1.482017 8.879292 -10.352049 0.000000 -0.000000 0.000000 -4.395898 1.513205 -16.658469 -4.352837 -4.038324 23.216655 4.582057 3.472099 -3.364644 0.000000 -0.000000 0.000000 -1.269964 -1.983464 7.577381 7.734737 -6.975173 14.881963 3.376751 -1.819024 -0.269151 -5.393671 -10.353819 17.352303 2.917504 -17.776157 4.984982 -8.841721 -12.011817 -2.680956 -75.531242 -40.241808 29.818504 171.014508 -52.883885 -131.303312 -40.388116 -15.367152 -15.617411 24.041749 5.709887 5.880173 58.890249 14.932148 9.892381 -56.090390 56.638830 -23.059054 39.816782 -8.285367 4.337590 
0.046332 0.271933 1.005893 72.695859 -0.053984 88.949961 -0.800081 2.525587 2.586037 2.259340 17.944185 6.219172 1.663381 9.662652 -10.466526 0.000000 -0.000000 0.000000 -4.182359 1.519662 -16.249107 -4.045085 -3.370445 23.425688 4.443115 2.793710 -3.774890 0.000000 -0.000000 0.000000 -1.342915 -2.248147 7.962642 7.744428 -6.671109 12.895533 2.881229 -1.992110 0.053826 -5.591188 -8.306356 17.260531 -0.680921 -16.635393 13.236573 -9.792305 -11.466822 -1.755002 -74.235167 -40.866350 29.087819 169.123437 -56.207114 -130.575518 -39.472443 -16.779943 -17.396216 25.039526 4.796800 5.889554 58.254412 15.404644 10.605742 -54.983314 56.690468 -21.627213 39.322309 -7.397335 3.963539 
0.047270 0.271258 1.005680 72.567988 -0.023435 88.774364 -0.624748 2.635763 2.688700 2.243327 17.770907 6.450695 1.746647 9.941871 -10.463543 0.000000 -0.000000 0.000000 -4.085687 1.569081 -16.046002 -3.894688 -3.043939 23.509900 4.332422 2.424901 -3.925305 0.000000 -0.000000 0.000000 -1.357967 -2.438900 7.710774 7.761105 -6.627700 12.317821 2.542178 -2.032139 0.131640 -5.873780 -6.776967 18.034247 -2.555492 -15.652967 17.612840 -10.264522 -11.130921 -1.258310 -73.434030 -41.222405 28.625780 167.903459 -57.964982 -130.016734 -39.481505 -17.384488 -17.879362 25.726283 4.268652 6.076253 57.659756 15.882475 10.875095 -54.415686 56.776854 -20.955832 39.251171 -6.955532 3.969491 
0.048346 0.270422 1.005414 72.406907 -0.041404 88.390450 -0.452868 2.647631 3.023792 2.110711 17.488439 6.681946 1.767966 10.432787 -10.477977 0.000000 -0.000000 0.000000 -4.000005 1.629141 -15.574058 -3.747746 -2.625295 23.568675 4.238311 1.967134 -4.167274 0.000000 -0.000000 0.000000 -1.370884 -2.604023 7.613076 7.784708 -6.586885 11.667172 2.184734 -2.197982 0.228375 -6.409736 -4.690959 19.491973 -4.722840 -14.110655 22.374512 -10.758602 -10.781734 -0.878839 -72.248615 -41.648247 27.968968 166.408532 -59.735192 -129.184310 -39.408339 -17.688437 -18.409340 26.382149 3.750086 6.353346 56.980384 16.474363 11.307531 -53.947556 56.915354 -20.630449 38.742749 -6.351775 3.587777 
0.048778 0.269851 1.005124 72.222256 -0.060579 88.200297 -0.379579 2.789878 3.089887 2.142901 17.359480 6.977157 1.801291 10.675742 -10.531958 0.000000 -0.000000 0.000000 -3.988070 1.688686 -15.450976 -3.630367 -2.414460 23.760041 4.203912 1.808456 -4.317179 0.000000 -0.000000 0.000000 -1.356144 -2.753987 7.310736 7.798870 -6.580362 11.340261 1.922902 -2.253890 0.171462 -6.768431 -2.677411 21.625054 -6.275777 -12.204994 25.635546 -11.141512 -10.477993 -0.507463 -71.432265 -42.096867 27.385622 165.031019 -61.020408 -128.209566 -39.639528 -17.704446 -18.378009 26.838559 3.197580 6.578591 56.495264 17.140488 11.566582 -53.395829 57.066261 -20.201670 38.386513 -5.754059 3.615444 
0.048981 0.269404 1.004610 72.043850 -0.121530 88.041980 -0.377125 2.871466 3.165718 2.154189 17.341235 7.170431 1.756760 10.821544 -10.664561 0.000000 -0.000000 0.000000 -4.041520 1.765255 -15.508837 -3.594527 -2.355090 24.167844 4.192732 1.868164 -4.565346 0.000000 -0.000000 0.000000 -1.388623 -2.752992 6.813738 7.863384 -6.632238 11.393054 1.698901 -2.315891 0.249892 -6.852233 -0.536904 23.903229 -7.445635 -10.679512 27.621965 -11.276789 -10.405006 -0.308483 -70.914445 -42.574091 27.071647 163.391049 -61.850425 -126.772902 -39.647934 -17.480976 -18.155691 27.200801 2.719528 6.835210 56.026704 17.853097 11.820634 -53.262082 57.230013 -20.288111 37.387301 -5.194887 3.103813 
